<svg xmlns="http://www.w3.org/2000/svg" viewBox="0 0 194.04 38.58"><defs><style>.cls-1{fill:#300;}</style></defs><title>logo_1</title><g id="图层_2" data-name="图层 2"><g id="图层_1-2" data-name="图层 1"><path class="cls-1" d="M13.67,1.56A10.62,10.62,0,0,0,10,2.13,8.41,8.41,0,0,0,7.31,3.74a11,11,0,0,0-2.06,2.5A26.2,26.2,0,0,0,3.59,9.51H2.91V.83H29.84l-21,36.29h9.41a14,14,0,0,0,4-.57,10.08,10.08,0,0,0,3.56-1.9,12.05,12.05,0,0,0,2.86-3.43,17.82,17.82,0,0,0,1.9-5.12h.68V37.85H0L20.9,1.56Z"/><path class="cls-1" d="M45.55,15.55V37.12H49v.73H35.72v-.73H39.2V16.27H35.72v-.72ZM39.77,1.77a3.65,3.65,0,0,1,5.2,0,3.55,3.55,0,0,1,1.1,2.6A3.56,3.56,0,0,1,45,7a3.65,3.65,0,0,1-5.2,0,3.59,3.59,0,0,1-1.09-2.6A3.58,3.58,0,0,1,39.77,1.77Z"/><path class="cls-1" d="M51.89,1.56V.83h4.78c1.77,0,3.54,0,5.31-.08s3.53-.07,5.3-.07A41.18,41.18,0,0,1,72.22,1a27.93,27.93,0,0,1,5.14,1.12A23,23,0,0,1,82.2,4.26a15.62,15.62,0,0,1,6.86,8.37,19.5,19.5,0,0,1,1,6.71,19.33,19.33,0,0,1-1,6.66,16.35,16.35,0,0,1-2.78,4.94,16,16,0,0,1-4,3.43,22.72,22.72,0,0,1-4.65,2.15,25.79,25.79,0,0,1-4.78,1.12,33.41,33.41,0,0,1-4.4.31c-2,0-3.94,0-5.9-.05s-3.92,0-5.9,0H51.89v-.73h4.78V1.56ZM67,37.28a18.12,18.12,0,0,0,5.77-.81,12.13,12.13,0,0,0,4-2.18,11.11,11.11,0,0,0,2.6-3.15,15.8,15.8,0,0,0,1.45-3.71,23,23,0,0,0,.65-3.9c.11-1.3.16-2.53.16-3.67a51.66,51.66,0,0,0-.52-7.62,14.88,14.88,0,0,0-2.06-5.82A10,10,0,0,0,74.74,2.7a17.53,17.53,0,0,0-7.31-1.3c-.69,0-1.31,0-1.87,0a8.8,8.8,0,0,0-1.35.13V37.12A25.44,25.44,0,0,0,67,37.28Z"/><path class="cls-1" d="M112.07,15.78a13.41,13.41,0,0,1,4,2.57,11.84,11.84,0,0,1,2.68,3.77,11.38,11.38,0,0,1,0,9.15A11.73,11.73,0,0,1,116.1,35a12.8,12.8,0,0,1-4,2.55,13.87,13.87,0,0,1-10,0A12.8,12.8,0,0,1,98,35a11.56,11.56,0,0,1-2.67-3.77,11.38,11.38,0,0,1,0-9.15A11.66,11.66,0,0,1,98,18.35a13.41,13.41,0,0,1,4-2.57,13.61,13.61,0,0,1,10,0Zm-1.85,21.11a5.55,5.55,0,0,0,1.69-2.52,13.4,13.4,0,0,0,.68-3.59c.08-1.35.13-2.72.13-4.11s0-2.74-.13-4.08a13.32,13.32,0,0,0-.68-3.56,5.55,5.55,0,0,0-1.69-2.52,5.71,5.71,0,0,0-6.34,0A5.63,5.63,0,0,0,102.19,19a13.73,13.73,0,0,0-.68,3.56c-.08,1.34-.13,2.7-.13,4.08s.05,2.76.13,4.11a13.8,13.8,0,0,0,.68,3.59,5.63,5.63,0,0,0,1.69,2.52,5.71,5.71,0,0,0,6.34,0Z"/><path class="cls-1" d="M127.12,37.12V16.27h-3.43v-.72h9.67v5.2h.1c.14-.32.39-.79.73-1.43a7.54,7.54,0,0,1,1.51-1.9,9,9,0,0,1,2.55-1.64,9.48,9.48,0,0,1,3.9-.7,7.09,7.09,0,0,1,5.33,2,7.51,7.51,0,0,1,1.89,5.41V37.12h3.49v.73H139.81v-.73H143V20.69a4.77,4.77,0,0,0-.88-3.19,3,3,0,0,0-2.39-1,5.11,5.11,0,0,0-2.4.6,5.83,5.83,0,0,0-2,1.79,10,10,0,0,0-1.38,3,15,15,0,0,0-.52,4.16V37.12h3.28v.73H123.69v-.73Z"/><path class="cls-1" d="M187.48,11.44a17.93,17.93,0,0,0-4-7.93A9.34,9.34,0,0,0,176.2.73a10.69,10.69,0,0,0-5.77,1.38,9.28,9.28,0,0,0-3.35,3.58,14.93,14.93,0,0,0-1.54,5.05,45.48,45.48,0,0,0-.36,5.74V21a43.34,43.34,0,0,0,.62,8,14.28,14.28,0,0,0,1.95,5.2A7.47,7.47,0,0,0,171.18,37a13.35,13.35,0,0,0,5,.86A7.27,7.27,0,0,0,180,37a5.72,5.72,0,0,0,2.15-2.34,9.71,9.71,0,0,0,1-3.51c.13-1.35.2-2.82.2-4.42v-2H178V24H194v.73h-3.38v11.9h-.94a1.22,1.22,0,0,0-.6-.9,2.1,2.1,0,0,0-1.12-.29,5.74,5.74,0,0,0-2.36.49L183.22,37a23.35,23.35,0,0,1-3,1.06,14.67,14.67,0,0,1-4.08.5,18.93,18.93,0,0,1-7.33-1.48A19.94,19.94,0,0,1,162.61,33,19.6,19.6,0,0,1,158.32,27a17.62,17.62,0,0,1-1.62-7.53,17.6,17.6,0,0,1,1.8-8A20.56,20.56,0,0,1,169.36,1.38,18.26,18.26,0,0,1,176.15,0a14.33,14.33,0,0,1,3,.31c1,.21,1.87.43,2.7.65s1.58.44,2.23.65a5.68,5.68,0,0,0,1.67.31,1.76,1.76,0,0,0,1-.23,2,2,0,0,0,.57-.86h.88V11.44Z"/></g></g></svg>