<svg xmlns="http://www.w3.org/2000/svg" viewBox="0 0 200.24 40.07"><defs><style>.cls-1{fill:#300;}</style></defs><title>logo_2</title><g id="图层_2" data-name="图层 2"><g id="图层_1-2" data-name="图层 1"><path class="cls-1" d="M100,.07a20,20,0,1,0,20,20A20,20,0,0,0,100,.07Zm0,32a12,12,0,1,1,12-12A12,12,0,0,1,100,32.07Z"/><path class="cls-1" d="M180.44,32a12,12,0,1,1,8.49-20.49l5.66-5.65a20,20,0,1,0,0,28.28l-5.66-5.65A12,12,0,0,1,180.44,32Z"/><rect class="cls-1" x="36" y="12.07" width="8" height="28"/><rect class="cls-1" x="36" y="0.07" width="8" height="8"/><rect class="cls-1" x="12" y="-11.93" width="8" height="32" transform="translate(20.07 -11.93) rotate(90)"/><rect class="cls-1" x="12" y="20.07" width="8" height="32" transform="translate(52.07 20.07) rotate(90)"/><polygon class="cls-1" points="29.85 0.07 32 8.07 2.15 40.07 0 32.07 29.85 0.07"/><path class="cls-1" d="M56,.07v8a12,12,0,0,1,0,24v8a20,20,0,0,0,0-40Z"/><rect class="cls-1" x="124" y="0.07" width="8" height="40"/><rect class="cls-1" x="148.47" y="0.07" width="8" height="40"/><rect class="cls-1" x="189.17" y="21.07" width="8" height="12" transform="translate(348.91 -90.38) rotate(135)"/><polygon class="cls-1" points="124 0.07 148.47 40.07 156.47 40.07 132 0.07 124 0.07"/><rect class="cls-1" x="48" y="0.07" width="8" height="8"/><rect class="cls-1" x="48" y="32.07" width="8" height="8"/></g></g></svg>