<?xml version="1.0" encoding="utf-8"?>
<!-- Generator: Adobe Illustrator 21.0.0, SVG Export Plug-In . SVG Version: 6.00 Build 0)  -->
<svg version="1.1" id="图层_1" xmlns="http://www.w3.org/2000/svg" xmlns:xlink="http://www.w3.org/1999/xlink" x="0px" y="0px"
	 viewBox="0 0 14 15.7" enable-background="new 0 0 14 15.7" xml:space="preserve">
<path fill-rule="evenodd" clip-rule="evenodd" fill="#2B2B2B" d="M14,10.7c-0.1-1.5-1.1-2.8-1.7-3.5c0.1-0.2,0.3-1.3-0.5-2.1
	c0,0,0,0,0-0.1C11.8,2.2,9.7,0,7,0C4.3,0,2.2,2.2,2.2,5.1c0,0,0,0,0,0.1C1.4,6,1.6,7.1,1.7,7.3C1.1,7.9,0.1,9.2,0,10.7
	c0,0.4,0,1,0.2,1.2c0.2,0.3,0.9-0.1,1.4-1.1C1.7,11.3,2,12.1,2.7,13c-1.1,0.3-1.5,1.4-1.1,2c0.3,0.4,0.9,0.8,1.9,0.8
	c1.9,0,2.7-0.5,3.1-0.9c0.1-0.1,0.2-0.1,0.3-0.1c0.1,0,0.2,0,0.3,0.1c0.4,0.4,1.2,0.9,3.1,0.9c1.1,0,1.7-0.4,1.9-0.8
	c0.4-0.6,0.1-1.7-1.1-2c0.7-0.9,1-1.6,1.1-2.1c0.5,1,1.1,1.4,1.4,1.1C14,11.7,14,11.1,14,10.7L14,10.7"/>
<path fill-rule="evenodd" clip-rule="evenodd" fill="#161616" d="M14,10.7L14,10.7z"/>
</svg>
