<svg xmlns="http://www.w3.org/2000/svg" xmlns:xlink="http://www.w3.org/1999/xlink" viewBox="0 0 596.03 470.08"><defs><style>.cls-1{fill:#29abe2;}.cls-2{fill:none;stroke:#606060;stroke-miterlimit:10;stroke-width:3px;}.cls-3{fill:#606060;}.cls-4{fill:#69c;}.cls-5{fill:#5e8fb7;}.cls-6{fill:#1b242b;}.cls-10,.cls-7{fill:#566068;}.cls-8{writing-mode:tb;text-orientation:upright;glyph-orientation-vertical:0deg;font-size:23.17px;fill:#f2f2f2;font-family:PingFangSC-Regular-GBpc-EUC-H, PingFang SC;}.cls-9{fill:gray;}.cls-10{font-size:81.31px;font-family:PingFangSC-Medium-GBpc-EUC-H, PingFang SC;}</style><symbol id="RSS" data-name="RSS" viewBox="0 0 19.64 19.64"><path id="circle" class="cls-1" d="M5.26,17a2.63,2.63,0,1,1-2.63-2.64A2.62,2.62,0,0,1,5.26,17Z"/><path class="cls-1" d="M12.9,19.5H9.44A9.41,9.41,0,0,0,6.67,13,9.32,9.32,0,0,0,.17,10.2V6.75A12.93,12.93,0,0,1,12.9,19.5Z"/><path class="cls-1" d="M19.64,19.5H16.19a16.24,16.24,0,0,0-16-16V0A19.69,19.69,0,0,1,19.64,19.5Z"/></symbol></defs><title>scanner1</title><g id="图层_2" data-name="图层 2"><g id="图层_1-2" data-name="图层 1"><line class="cls-2" x1="201.75" y1="228.35" x2="201.75" y2="447.34"/><polygon class="cls-3" points="186.79 232.73 201.75 206.82 216.71 232.73 186.79 232.73"/><polygon class="cls-3" points="186.79 442.96 201.75 468.87 216.71 442.96 186.79 442.96"/><rect class="cls-4" x="259.96" y="205.99" width="69.59" height="262.87"/><polygon class="cls-5" points="259.96 468.87 259.96 390.78 329.55 321.57 329.55 468.87 259.96 468.87"/><rect class="cls-6" x="266.98" y="214.27" width="55.56" height="41.54"/><rect class="cls-7" x="266.98" y="245.23" width="55.56" height="10.58"/><text class="cls-8" transform="translate(294.76 265.51)">扫门票呼叫无人车</text><use width="19.64" height="19.64" transform="matrix(-5.46, 0, 0, 5.46, 260.96, 81.35)" xlink:href="#RSS"/><circle class="cls-9" cx="494.47" cy="100.4" r="83.97"/><path class="cls-9" d="M578.77,100.4a84,84,0,0,1-84,84V16.42A84,84,0,0,1,578.77,100.4Z"/><path class="cls-9" d="M447.5,116a7.47,7.47,0,1,1,7.47,7.46A7.47,7.47,0,0,1,447.5,116Z"/><path class="cls-9" d="M526.47,116a7.47,7.47,0,1,1,7.46,7.46A7.47,7.47,0,0,1,526.47,116Z"/><path class="cls-9" d="M495.2,164.93c-8.1,0-18.33-1.57-21.52-6.41a2.2,2.2,0,0,1,3.67-2.42c2,3.07,12,5,21.78,4.29,7.42-.56,11.55-2.46,12.26-4a2.19,2.19,0,1,1,4,1.83c-2.22,4.81-10.92,6.17-15.91,6.54C498.16,164.87,496.72,164.93,495.2,164.93Z"/><path class="cls-9" d="M472.28,100.43l-34.67-.07a5.31,5.31,0,0,1-5.3-5.32V88.15a5.32,5.32,0,0,1,5.33-5.3l34.67.07a5.31,5.31,0,0,1,5.3,5.33v6.88A5.32,5.32,0,0,1,472.28,100.43Z"/><rect class="cls-9" x="525.18" y="68.99" width="17.51" height="45.3" rx="5.31" ry="5.31" transform="translate(441.23 625.39) rotate(-89.89)"/><path class="cls-9" d="M462.44,155.17a21.75,21.75,0,0,1-9.52,18,84.19,84.19,0,0,1-30.44-30.12,21.82,21.82,0,0,1,40,12.1Z"/><path class="cls-9" d="M567.11,143.07a84.11,84.11,0,0,1-30.44,30.12,21.81,21.81,0,1,1,30.44-30.12Z"/><circle class="cls-9" cx="455.31" cy="119.7" r="11.17"/><circle class="cls-9" cx="534.28" cy="119.7" r="11.17"/><path class="cls-9" d="M402.25,330.35c-4.76,2.19-8.26,7.85-7.53,15.19s5.56,12.86,10.78,12.34c3.52-.35,6.32-3.38,7.54-7.57,2,1.93,4.16,2.79,5.89,2,2.8-1.25,3.28-6.31,1.05-11.3S409.64,327,402.25,330.35Z"/><path class="cls-9" d="M439.34,216,396.5,333.89l23.88,7.7,42.85-117.85c3.63-10,12.73-16.12,20.31-13.68l-23.9-7.7C452.07,199.92,443,206.05,439.34,216Z"/><path class="cls-9" d="M588.41,330.35c4.76,2.19,8.25,7.85,7.52,15.19s-5.56,12.86-10.77,12.34c-3.53-.35-6.32-3.38-7.54-7.57-2,1.93-4.17,2.79-5.89,2-2.81-1.25-3.28-6.31-1.06-11.3S581,327,588.41,330.35Z"/><path class="cls-9" d="M551.31,216l42.85,117.85-23.89,7.7L527.42,223.74c-3.63-10-12.72-16.12-20.3-13.68l23.9-7.7C538.58,199.92,547.68,206.05,551.31,216Z"/><polygon class="cls-9" points="494.71 347 443.19 347 457.81 469.41 480.66 469.41 480.54 385.62 494.71 385.62 508.88 385.62 508.76 469.41 531.61 469.41 546.23 347 494.71 347"/><path class="cls-9" d="M485.4,470.08H450a17.72,17.72,0,1,1,35.43,0Z"/><path class="cls-9" d="M548.73,221.2V347.34H440.86V221.2c0-10.69,6.56-19.38,14.65-19.38h78.58C542.17,201.82,548.73,210.51,548.73,221.2Z"/><path class="cls-9" d="M549.28,221.2V347.34H494.76V201.82h39.88C542.73,201.82,549.28,210.51,549.28,221.2Z"/><polygon class="cls-9" points="494.71 267.35 469.48 201.82 481.37 193.2 508.1 193.2 520.05 201.82 494.71 267.35"/><polygon class="cls-9" points="520.14 201.83 494.8 267.35 494.85 193.2 508.19 193.2 520.14 201.83"/><polygon class="cls-9" points="507.12 173.19 507.12 193.95 494.8 206.12 494.8 173.19 507.12 173.19"/><polygon class="cls-9" points="494.8 173.19 494.8 206.12 482.48 193.95 482.48 173.19 494.8 173.19"/><polygon class="cls-9" points="546.23 347.34 531.61 469.75 508.76 469.75 508.88 385.96 494.71 385.96 494.71 347.34 546.23 347.34"/><path class="cls-9" d="M539.43,469.78H504a17.71,17.71,0,0,1,34.27-6.28A17.43,17.43,0,0,1,539.43,469.78Z"/><polygon class="cls-9" points="494.79 206.12 476.63 220.44 469.47 201.83 481.37 193.2 482.46 193.2 482.46 193.95 494.79 206.12"/><polygon class="cls-9" points="494.81 206.12 512.96 220.44 520.12 201.83 508.23 193.2 507.13 193.2 507.13 193.95 494.81 206.12"/><path class="cls-9" d="M569.16,50.88a8.59,8.59,0,0,0-6.24-4.71l-3.65-.62c-5.15-9.12-7.07-15.72-14.29-24.91C534.71,7.57,471.36,1.93,449.4,14.71c-5.33-2.52-9.35-8.53-10.7-14.71l-3.65.94c-12.57,1.86-28.85,31.62-15.33,58.5C411.18,79,407.66,99.53,413,120.82L432.19,67.9H558.94l17,52.92C582.58,99.61,580.39,73.92,569.16,50.88Z"/><path class="cls-9" d="M557.26,67.9H432.7a21.57,21.57,0,0,1-12.48-8.46,48.08,48.08,0,0,1-4.84-26.75,47.39,47.39,0,0,0,4.84,16.49,21.62,21.62,0,0,0,12.48,8.47l119.14,0c5.89,0,9.65-6,7.43-12.05h0C563.09,49.58,566,67.9,557.26,67.9Z"/><text class="cls-10" transform="translate(0 357.91)">1.2m</text></g></g></svg>