<svg xmlns="http://www.w3.org/2000/svg" xmlns:xlink="http://www.w3.org/1999/xlink" viewBox="0 0 1208.3 795.69"><defs><style>.cls-1,.cls-2,.cls-5,.cls-6{fill:none;}.cls-1,.cls-6{stroke:blue;}.cls-1,.cls-2{stroke-linecap:round;stroke-width:3px;}.cls-1,.cls-2,.cls-6{stroke-miterlimit:10;}.cls-2,.cls-5{fill-rule:evenodd;}.cls-2{stroke:url(#未命名的渐变_51);}.cls-3{font-size:40px;font-family:ArialMT, Arial;}.cls-4{fill:#29abe2;}.cls-6{stroke-width:2px;}</style><linearGradient id="未命名的渐变_51" x1="141" y1="380.4" x2="1072.5" y2="380.4" gradientUnits="userSpaceOnUse"><stop offset="0" stop-color="aqua"/><stop offset="0.27" stop-color="blue"/><stop offset="0.43" stop-color="aqua"/><stop offset="0.57" stop-color="blue"/><stop offset="0.68" stop-color="aqua"/><stop offset="0.8" stop-color="blue"/><stop offset="0.9" stop-color="aqua"/><stop offset="1" stop-color="blue"/></linearGradient></defs><title>time-energy</title><g id="图层_2" data-name="图层 2"><g id="图层_1-2" data-name="图层 1"><polyline class="cls-1" points="1.5 1.5 1.5 741.5 1178.5 741.5"/><path class="cls-2" d="M1071,705.4c-77.27,0-38.56-260-87.5-260s-33.55,162-108.24,162-43.76-315-106.76-315c-43.79,0-43.92,201-110.88,201s-64.39-309-121-310-54.09,129-123.63,128S205.6,56.4,142.5,55.4"/><text class="cls-3" transform="translate(17.43 36.7)">energy &amp; feeling</text><text class="cls-3" transform="translate(1113.43 782.7)">time</text><text class="cls-3" transform="translate(955.43 782.7)">play</text><text class="cls-3" transform="translate(738.43 782.7)">play</text><text class="cls-3" transform="translate(506.43 782.7)">play</text><circle class="cls-4" cx="419" cy="308.9" r="19"/><circle class="cls-4" cx="661" cy="492.9" r="19"/><circle class="cls-4" cx="878" cy="600.9" r="19"/><circle class="cls-4" cx="1071" cy="705.9" r="19"/><circle class="cls-4" cx="575" cy="23.9" r="19"/><text class="cls-3" transform="translate(623.58 36.7)">Opportunity to introduce services</text><path class="cls-5" d="M1071,705.4c-77.27,0-38.56-260-87.5-260s-33.55,162-108.24,162-43.76-315-106.76-315c-43.79,0-43.92,201-110.88,201s-64.39-309-121-310-54.09,129-123.63,128S205.6,56.4,142.5,55.4V741.5H1071Z"/><line class="cls-6" x1="769.5" y1="292.4" x2="769.5" y2="745.9"/><line class="cls-6" x1="533.5" y1="183.4" x2="533.5" y2="744.9"/><text class="cls-3" transform="translate(115.43 782.7)">play</text><line class="cls-6" x1="142.5" y1="55.4" x2="142.5" y2="744.9"/><line class="cls-6" x1="981.5" y1="445.4" x2="981.5" y2="744.9"/></g></g></svg>