<svg xmlns="http://www.w3.org/2000/svg" viewBox="0 0 91 20"><defs><style>.cls-1{fill:#fff;}</style></defs><title>loading-logo</title><g id="图层_2" data-name="图层 2"><g id="图层_1-2" data-name="图层 1"><rect class="cls-1" x="46" width="4" height="20"/><rect class="cls-1" x="34" width="4" height="20"/><rect class="cls-1" x="68" width="23" height="4"/><rect class="cls-1" x="75" y="8" width="16" height="4"/><rect class="cls-1" x="75" y="16" width="16" height="4"/><rect class="cls-1" width="4" height="20"/><polygon class="cls-1" points="38 0 50 20 46 20 34 0 38 0"/><rect class="cls-1" x="17" width="4" height="20"/><polygon class="cls-1" points="21 0 33 20 29 20 17 0 21 0"/><path class="cls-1" d="M68,10a6,6,0,1,1-6-6V0A10,10,0,1,0,72,10Z"/><path class="cls-1" d="M10.79,11.31A6,6,0,0,0,8,0H0V4H8a2,2,0,0,1,.72,3.86A2,2,0,0,1,8,8H0v4H7.2L12,20h4Z"/></g></g></svg>