<svg xmlns="http://www.w3.org/2000/svg" viewBox="0 0 130 90"><defs><style>.cls-1{fill:#fff;}</style></defs><title>logo-white</title><g id="图层_2" data-name="图层 2"><g id="图层_1-2" data-name="图层 1"><rect class="cls-1" x="17" width="42" height="10"/><rect class="cls-1" x="17" y="36" width="44" height="10"/><path class="cls-1" d="M-40,40H40A10,10,0,0,1,50,50v0a0,0,0,0,1,0,0H-40a0,0,0,0,1,0,0V40A0,0,0,0,1-40,40Z" transform="translate(50 40) rotate(90)"/><path class="cls-1" d="M55,65H85A10,10,0,0,1,95,75v0a0,0,0,0,1,0,0H55a0,0,0,0,1,0,0V65A0,0,0,0,1,55,65Z" transform="translate(145 -5) rotate(90)"/><path class="cls-1" d="M105,65h30a10,10,0,0,1,10,10v0a0,0,0,0,1,0,0H105a0,0,0,0,1,0,0V65A0,0,0,0,1,105,65Z" transform="translate(195 -55) rotate(90)"/><rect class="cls-1" x="68" y="4" width="62" height="10"/><rect class="cls-1" x="76" y="36" width="54" height="10"/><path class="cls-1" d="M98,24V80H88V90H98a10,10,0,0,0,10-10V24Z"/><path class="cls-1" d="M33,24V80H23V90H33A10,10,0,0,0,43,80V24Z"/><rect class="cls-1" x="58" y="18" width="46" height="10" transform="translate(104 -58) rotate(90)"/><path class="cls-1" d="M29,32A32,32,0,0,0,61,0H51A22,22,0,0,1,29,22Z"/></g></g></svg>