<svg xmlns="http://www.w3.org/2000/svg" viewBox="0 0 212 40"><defs><style>.cls-1,.cls-2{fill:#111;}.cls-1{opacity:0.5;}</style></defs><title>logo_black</title><g id="图层_2" data-name="图层 2"><g id="图层_1-2" data-name="图层 1"><path class="cls-1" d="M204,16h-8v8h8v8h-8a12,12,0,0,1,0-24h12V0H196a20,20,0,0,0,0,40h16V16Z"/><path class="cls-1" d="M108,0a20,20,0,1,0,20,20A20,20,0,0,0,108,0Zm0,32a12,12,0,1,1,12-12A12,12,0,0,1,108,32Z"/><polygon class="cls-1" points="0 8 23.47 8 0 30 0 32 0 40 32 40 32 32 8.53 32 32 10 32 8 32 0 0 0 0 8"/><rect class="cls-2" x="40" width="28" height="8"/><path class="cls-2" d="M72,20a12,12,0,0,1-24,0V12H40v8h0a20,20,0,0,0,40,0h0V12H72Z"/><rect class="cls-2" x="72" width="8" height="8"/><polygon class="cls-1" points="160 25.45 146 0 144 0 136 0 136 40 144 40 144 14.54 158 40 160 40 168 40 168 0 160 0 160 25.45"/></g></g></svg>