<svg xmlns="http://www.w3.org/2000/svg" viewBox="0 0 128 20"><defs><style>.cls-1{fill:#b2b2b2;}</style></defs><title>logo</title><g id="图层_2" data-name="图层 2"><g id="图层_1-2" data-name="图层 1"><path class="cls-1" d="M58,0V20H78V0ZM77,19H59V1H77Z"/><path class="cls-1" d="M83,0V20h20V0Zm19,20H84V1h18Z"/><polygon class="cls-1" points="128 1 128 0 108 0 108 20 128 20 128 6 127 6 127 19 109 19 109 1 123 1 127 1 128 1"/><polygon class="cls-1" points="33 0 33 20 48 20 48 19 34 19 34 1 52 1 52 15 53 15 53 0 33 0"/><polygon class="cls-1" points="52 15 48 19 48 20 53 15 52 15"/><rect class="cls-1" width="20" height="1"/><rect class="cls-1" y="19" width="20" height="1"/><polygon class="cls-1" points="20 0 0 19 0 20 20 1 20 0"/><rect class="cls-1" x="26" width="1" height="20"/></g></g></svg>