<svg xmlns="http://www.w3.org/2000/svg" viewBox="0 0 235 52.81"><defs><style>.cls-1{fill:none;stroke:#333;stroke-miterlimit:10;stroke-width:4px;}.cls-2{fill:#333;}</style></defs><title>logo</title><g id="图层_2" data-name="图层 2"><g id="图层_1-2" data-name="图层 1"><rect class="cls-1" x="2" y="2" width="231" height="48.81"/><polygon class="cls-2" points="184 50.81 233 50.81 233 1.76 184 50.81"/><path class="cls-2" d="M96.75,9.52a17.41,17.41,0,1,0,17.41,17.41A17.41,17.41,0,0,0,96.75,9.52Zm0,27.85a10.45,10.45,0,1,1,10.44-10.44A10.45,10.45,0,0,1,96.75,37.37Z"/><path class="cls-2" d="M166.77,37.31a10.45,10.45,0,1,1,7.38-17.83l4.93-4.92a17.41,17.41,0,1,0,0,24.61l-4.93-4.92A10.41,10.41,0,0,1,166.77,37.31Z"/><rect class="cls-2" x="41.04" y="19.96" width="6.96" height="24.37"/><rect class="cls-2" x="41.04" y="9.52" width="6.96" height="6.96"/><rect class="cls-2" x="20.15" y="-0.93" width="6.96" height="27.85" transform="translate(36.64 -10.64) rotate(90)"/><rect class="cls-2" x="20.15" y="26.93" width="6.96" height="27.85" transform="translate(64.49 17.22) rotate(90)"/><polygon class="cls-2" points="35.69 9.52 37.56 16.48 11.59 44.33 9.71 37.37 35.69 9.52"/><path class="cls-2" d="M58.45,9.52v7a10.45,10.45,0,1,1,0,20.89v7a17.41,17.41,0,1,0,0-34.81Z"/><rect class="cls-2" x="117.64" y="9.52" width="6.96" height="34.82"/><rect class="cls-2" x="138.94" y="9.52" width="6.96" height="34.82"/><rect class="cls-2" x="174.36" y="27.8" width="6.96" height="10.44" transform="translate(326.95 -69.39) rotate(135)"/><polygon class="cls-2" points="117.64 9.52 138.94 44.33 145.9 44.33 124.6 9.52 117.64 9.52"/><rect class="cls-2" x="51.49" y="9.52" width="6.96" height="6.96"/><rect class="cls-2" x="51.49" y="37.37" width="6.96" height="6.96"/></g></g></svg>