<?xml version="1.0" encoding="UTF-8"?>
<svg width="94px" height="94px" viewBox="0 0 94 94" version="1.1" xmlns="http://www.w3.org/2000/svg" xmlns:xlink="http://www.w3.org/1999/xlink">
    <!-- Generator: Sketch 61 (89581) - https://sketch.com -->
    <title>编组备份</title>
    <desc>Created with Sketch.</desc>
    <g id="页面-1" stroke="none" stroke-width="1" fill="none" fill-rule="evenodd">
        <g id="720p" transform="translate(-17.000000, -17.000000)" fill="#202022" fill-rule="nonzero">
            <g id="编组备份" transform="translate(17.000000, 17.000000)">
                <path d="M61.9005567,0.499639296 C62.0104055,0.493062118 62.1201669,0.498820202 62.2278044,0.516069947 C62.5440021,0.561989479 62.8139951,0.701556128 63.0231306,0.898502844 L63.1014972,0.976869404 C63.2984439,1.18600487 63.4380105,1.45599794 63.4837609,1.77175626 C63.5004463,1.8752563 63.5064274,1.98026413 63.5011329,2.08543141 L63.5006712,30.5351168 C80.2008067,31.3183841 93.5,45.1060956 93.5,62 C93.5,79.3969696 79.3969696,93.5 62,93.5 L32.0854314,93.5011329 C31.9183202,93.509546 31.7516116,93.4894887 31.5924781,93.4439322 C31.5665809,93.4366894 31.5407669,93.4286529 31.5152622,93.4199486 C31.5004133,93.4145168 31.4857975,93.4092431 31.4712647,93.4037514 C31.4485099,93.3955903 31.4257331,93.3863621 31.4032423,93.3765989 C31.3845336,93.3680871 31.366173,93.3597054 31.3479814,93.3509676 C31.3310951,93.3431029 31.3140129,93.334441 31.2971228,93.3254658 C30.8387575,93.083944 30.5,92.6119063 30.5,92 L30.5,92 L30.5003268,63.46493 C13.7997231,62.6821651 0.5,48.8942409 0.5,32 C0.5,14.6030304 14.6030304,0.5 32,0.5 L32,0.5 Z M63.5004731,33.5388207 L63.5,62 C63.5,62.3978247 63.3419647,62.7793556 63.0606602,63.0606602 L63.0606602,63.0606602 L35.62,90.4999929 L62,90.5 C77.7401154,90.5 90.5,77.7401154 90.5,62 L90.4961818,61.5287004 C90.2526333,46.5073372 78.3877026,34.3110162 63.5004731,33.5388207 Z M60.5,33.5 L33.5,33.5 L33.5,88.378 L60.5,61.378 L60.5,33.5 Z M58.378,3.49999287 L32,3.5 C16.2598846,3.5 3.5,16.2598846 3.5,32 C3.5,47.1105108 15.2595097,59.4744409 30.1261172,60.4393785 L30.1261172,60.4393785 L30.5,60.46 L30.4999706,32.083468 C30.4787846,31.7477934 30.5698832,31.4005705 30.7978229,31.1010837 C30.8072705,31.0901551 30.8155998,31.0793546 30.8240716,31.0686723 L30.8309079,31.0591343 C30.8643672,31.0181749 30.9004892,30.9781904 30.9393398,30.9393398 L30.8690921,31.0145497 C30.8768019,31.0057093 30.8846136,30.9969601 30.8925255,30.988304 L30.9195681,30.9594848 L30.9195681,30.9594848 L30.9393398,30.9393398 L58.378,3.49999287 Z M60.5,5.62 L35.62,30.5 L60.5,30.5 L60.5,5.62 Z" id="形状结合"></path>
            </g>
        </g>
    </g>
</svg>