<svg xmlns="http://www.w3.org/2000/svg" viewBox="0 0 120 40"><defs><style>.cls-1{fill:#f93;}.cls-2{fill:#333;}</style></defs><title>logo</title><g id="图层_2" data-name="图层 2"><g id="图层_1-2" data-name="图层 1"><circle class="cls-1" cx="20" cy="20" r="20"/><rect class="cls-2" x="75" y="20" width="4" height="20" transform="translate(154 60) rotate(180)"/><rect class="cls-2" x="63" y="20" width="4" height="20" transform="translate(130 60) rotate(180)"/><rect class="cls-2" x="106.5" y="10.5" width="4" height="23" transform="translate(86.5 130.5) rotate(-90)"/><rect class="cls-2" x="110" y="22" width="4" height="16" transform="translate(82 142) rotate(-90)"/><rect class="cls-2" x="110" y="30" width="4" height="16" transform="translate(74 150) rotate(-90)"/><rect class="cls-2" x="29" y="20" width="4" height="20" transform="translate(62 60) rotate(180)"/><polygon class="cls-2" points="67 20 79 40 75 40 63 20 67 20"/><rect class="cls-2" x="46" y="20" width="4" height="20" transform="translate(96 60) rotate(180)"/><polygon class="cls-2" points="50 20 62 40 58 40 46 20 50 20"/><path class="cls-2" d="M97,30a6,6,0,1,1-6-6V20a10,10,0,1,0,10,10Z"/><path class="cls-2" d="M39.79,31.31A6,6,0,0,0,37,20H29v4h8a2,2,0,0,1,.72,3.86A2,2,0,0,1,37,28H29v4h7.2L41,40h4Z"/></g></g></svg>