<svg xmlns="http://www.w3.org/2000/svg" viewBox="0 0 80 210"><defs><style>.cls-1{fill:#333;}.cls-2{fill:#fff;}</style></defs><title>logo</title><g id="图层_2" data-name="图层 2"><g id="图层_1-2" data-name="图层 1"><rect class="cls-1" x="-65" y="65" width="210" height="80" transform="translate(145 65) rotate(90)"/><rect class="cls-2" x="25" y="18" width="29" height="8"/><rect class="cls-2" x="15" y="175" width="24" height="10" transform="translate(207 153) rotate(90)"/><rect class="cls-2" x="41" y="175" width="24" height="10" transform="translate(233 127) rotate(90)"/><rect class="cls-2" x="22" y="118" width="36" height="8"/><path class="cls-2" d="M22,130v34H58V130Zm26,27.59H32V135.91H48Z"/><rect class="cls-2" x="35" y="112" width="10" height="80"/><path class="cls-2" d="M35,36v2.07A21.77,21.77,0,0,0,38.64,36Z"/><path class="cls-2" d="M35,88.1V98a10,10,0,0,0,10-9.9V43.75a32.06,32.06,0,0,1-10,5Z"/><path class="cls-2" d="M58,18H48a22,22,0,0,1-9.36,18H45v7.75A32,32,0,0,0,58,18Z"/><path class="cls-2" d="M38.64,36A21.77,21.77,0,0,1,35,38.07V48.71a32.06,32.06,0,0,0,10-5V36Z"/><rect class="cls-2" x="22" y="55" width="36" height="8"/><rect class="cls-2" x="25.6" y="143" width="28.8" height="8"/><rect class="cls-2" x="25.6" y="130" width="28.8" height="8"/><rect class="cls-2" x="25.6" y="156" width="28.8" height="8"/></g></g></svg>