<svg xmlns="http://www.w3.org/2000/svg" viewBox="0 0 100 20"><defs><style>.cls-1{fill:#333;}.cls-2{fill:#f93;}</style></defs><title>logo</title><g id="图层_2" data-name="图层 2"><g id="图层_1-2" data-name="图层 1"><path class="cls-1" d="M86,10a6,6,0,0,1,6-6V0a10,10,0,0,0,0,20V16A6,6,0,0,1,86,10Z"/><rect class="cls-1" x="92" width="6" height="4" transform="translate(190 4) rotate(180)"/><polygon class="cls-1" points="96 8 92 8 92 12 96 12 96 16 92 16 92 20 100 20 100 16 100 12 100 8 96 8"/><path class="cls-1" d="M28,0V4a6,6,0,0,1,0,12v4A10,10,0,0,0,28,0Z"/><path class="cls-1" d="M50,4a6,6,0,0,1,6,6h4a10,10,0,0,0-20,0h4A6,6,0,0,1,50,4Z"/><rect class="cls-2" x="18" y="6" width="4" height="14"/><rect class="cls-2" x="6" y="10" width="4" height="16" transform="translate(26 10) rotate(90)"/><rect class="cls-2" x="6" y="-6" width="4" height="16" transform="translate(10 -6) rotate(90)"/><path class="cls-1" d="M50,16a6,6,0,0,1-6-6H40a10,10,0,0,0,20,0H56A6,6,0,0,1,50,16Z"/><rect class="cls-1" x="24" y="16" width="4" height="4" transform="translate(52 36) rotate(180)"/><rect class="cls-1" x="24" width="4" height="4" transform="translate(52 4) rotate(180)"/><rect class="cls-2" x="18" width="4" height="4" transform="translate(40 4) rotate(180)"/><polygon class="cls-2" points="16 5 0 20 0 15 16 0 16 5"/><rect class="cls-1" x="76" width="4" height="20" transform="translate(156 20) rotate(180)"/><rect class="cls-1" x="62" width="4" height="20" transform="translate(128 20) rotate(180)"/><polygon class="cls-1" points="67 0 80 20 75 20 62 0 67 0"/></g></g></svg>