<svg xmlns="http://www.w3.org/2000/svg" viewBox="0 0 100 20"><defs><style>.cls-1{fill:#fff;}</style></defs><title>logo-white</title><g id="图层_2" data-name="图层 2"><g id="图层_1-2" data-name="图层 1"><path class="cls-1" d="M28,0H24V4h4a6,6,0,0,1,0,12H24v4h4A10,10,0,0,0,28,0Z"/><path class="cls-1" d="M50,0A10,10,0,1,0,60,10,10,10,0,0,0,50,0Zm0,16a6,6,0,1,1,6-6A6,6,0,0,1,50,16Z"/><path class="cls-1" d="M96,8H92v4h4v4H92A6,6,0,0,1,92,4h6V0H92a10,10,0,0,0,0,20h8V8Z"/><rect class="cls-1" x="18" y="6" width="4" height="14"/><polygon class="cls-1" points="0 4 11.73 4 0 15 0 16 0 20 16 20 16 16 4.27 16 16 5 16 4 16 0 0 0 0 4"/><rect class="cls-1" x="18" width="4" height="4"/><polygon class="cls-1" points="76 13.85 67 0 66 0 62 0 62 20 66 20 66 6.15 75 20 76 20 80 20 80 0 76 0 76 13.85"/></g></g></svg>