<svg xmlns="http://www.w3.org/2000/svg" viewBox="0 0 30 40"><defs><style>.cls-1{fill:#b2b2b2;}</style></defs><title>logo</title><g id="图层_2" data-name="图层 2"><g id="图层_1-2" data-name="图层 1"><rect class="cls-1" y="2.5" width="30" height="1"/><rect class="cls-1" y="9" width="30" height="1"/><rect class="cls-1" y="27" width="30" height="1"/><rect class="cls-1" x="-5" y="19.5" width="40" height="1" transform="translate(35 5) rotate(90)"/><rect class="cls-1" y="15" width="30" height="1"/><rect class="cls-1" x="19.5" y="18.5" width="20" height="1" transform="translate(48.5 -10.5) rotate(90)"/><rect class="cls-1" x="24.5" y="34.5" width="10" height="1" transform="translate(64.5 5.5) rotate(90)"/><rect class="cls-1" x="-9.5" y="18.5" width="20" height="1" transform="translate(19.5 18.5) rotate(90)"/><polygon class="cls-1" points="0.56 40 0 39.16 29.31 15.11 29.94 15.89 0.56 40"/><polygon class="cls-1" points="0.56 40 0 40 0 39.16 1 38.89 0.56 40"/></g></g></svg>