<svg xmlns="http://www.w3.org/2000/svg" viewBox="0 0 80 240"><defs><style>.cls-1{fill:#333;}.cls-2{fill:#fff;}</style></defs><title>logo</title><g id="图层_2" data-name="图层 2"><g id="图层_1-2" data-name="图层 1"><rect class="cls-1" x="-80" y="80" width="240" height="80" transform="translate(160 80) rotate(90)"/><rect class="cls-2" x="25" y="38" width="29" height="8"/><rect class="cls-2" x="15" y="185" width="24" height="10" transform="translate(217 163) rotate(90)"/><rect class="cls-2" x="41" y="185" width="24" height="10" transform="translate(243 137) rotate(90)"/><rect class="cls-2" x="22" y="128" width="36" height="8"/><path class="cls-2" d="M22,140v34H58V140Zm26,27.59H32V145.91H48Z"/><rect class="cls-2" x="35" y="122" width="10" height="80"/><path class="cls-2" d="M35,56v2.07A21.77,21.77,0,0,0,38.64,56Z"/><path class="cls-2" d="M35,108.1V118a10,10,0,0,0,10-9.9V63.75a32.06,32.06,0,0,1-10,5Z"/><path class="cls-2" d="M58,38H48a22,22,0,0,1-9.36,18H45v7.75A32,32,0,0,0,58,38Z"/><path class="cls-2" d="M38.64,56A21.77,21.77,0,0,1,35,58.07V68.71a32.06,32.06,0,0,0,10-5V56Z"/><rect class="cls-2" x="22" y="75" width="36" height="8"/><rect class="cls-2" x="25.6" y="153" width="28.8" height="8"/><rect class="cls-2" x="25.6" y="140" width="28.8" height="8"/><rect class="cls-2" x="25.6" y="166" width="28.8" height="8"/></g></g></svg>