<svg xmlns="http://www.w3.org/2000/svg" viewBox="0 0 101.33 53.33"><defs><style>.cls-1{fill:#fff;}</style></defs><title>logo</title><g id="图层_2" data-name="图层 2"><g id="图层_1-2" data-name="图层 1"><path class="cls-1" d="M74.67,0V10.67a16,16,0,0,1,0,32V53.33A26.67,26.67,0,0,0,74.67,0Z"/><rect class="cls-1" x="48" y="16" width="10.67" height="37.33"/><rect class="cls-1" x="16" y="26.67" width="10.67" height="42.67" transform="translate(69.33 26.67) rotate(90)"/><rect class="cls-1" x="16" y="-16" width="10.67" height="42.67" transform="translate(26.67 -16) rotate(90)"/><rect class="cls-1" x="64" y="42.67" width="10.67" height="10.67" transform="translate(138.67 96) rotate(180)"/><rect class="cls-1" x="64" width="10.67" height="10.67" transform="translate(138.67 10.67) rotate(180)"/><rect class="cls-1" x="48" width="10.67" height="10.67" transform="translate(106.67 10.67) rotate(180)"/><polygon class="cls-1" points="42.67 13.33 0 53.33 0 40 42.67 0 42.67 13.33"/></g></g></svg>