<svg xmlns="http://www.w3.org/2000/svg" viewBox="0 0 212 40"><defs><style>.cls-1{fill:#fff;}</style></defs><title>logo_2</title><g id="图层_2" data-name="图层 2"><g id="图层_1-2" data-name="图层 1"><path class="cls-1" d="M178,20A18,18,0,0,1,196,2V0a20,20,0,0,0,0,40V38A18,18,0,0,1,178,20Z"/><rect class="cls-1" x="196" width="12" height="2" transform="translate(404 2) rotate(180)"/><polygon class="cls-1" points="204 16 196 16 196 18 210 18 210 38 196 38 196 40 212 40 212 32 212 24 212 16 204 16"/><path class="cls-1" d="M60,38A18,18,0,0,1,42,20H40a20,20,0,0,0,40,0H78A18,18,0,0,1,60,38Z"/><rect class="cls-1" x="54.5" y="-14.5" width="2" height="31" transform="translate(56.5 -54.5) rotate(90)"/><rect class="cls-1" x="15" y="23" width="2" height="32" transform="translate(55 23) rotate(90)"/><rect class="cls-1" x="15" y="-15" width="2" height="32" transform="translate(17 -15) rotate(90)"/><path class="cls-1" d="M108,0a20,20,0,1,0,20,20A20,20,0,0,0,108,0Zm0,38a18,18,0,1,1,18-18A18,18,0,0,1,108,38Z"/><rect class="cls-1" x="40" y="18" width="2" height="2" transform="translate(22 60) rotate(-90)"/><rect class="cls-1" x="78" y="18" width="2" height="2" transform="translate(60 98) rotate(-90)"/><rect class="cls-1" x="75.5" y="-2.5" width="2" height="7" transform="translate(75.5 77.5) rotate(-90)"/><polygon class="cls-1" points="32 3 0 40 0 37 32 0 32 3"/><rect class="cls-1" x="166" width="2" height="40" transform="translate(334 40) rotate(180)"/><rect class="cls-1" x="136" width="2" height="40" transform="translate(274 40) rotate(180)"/><polygon class="cls-1" points="139 0 168 40 165 40 136 0 139 0"/><circle class="cls-1" cx="52" cy="11" r="2"/><circle class="cls-1" cx="68" cy="11" r="2"/></g></g></svg>