<svg xmlns="http://www.w3.org/2000/svg" viewBox="0 0 38 20"><defs><style>.cls-1{fill:#b2b2b2;}</style></defs><title>logo</title><g id="图层_2" data-name="图层 2"><g id="图层_1-2" data-name="图层 1"><path class="cls-1" d="M28,0V4a6,6,0,0,1,0,12v4A10,10,0,0,0,28,0Z"/><rect class="cls-1" x="18" y="6" width="4" height="14"/><rect class="cls-1" x="6" y="10" width="4" height="16" transform="translate(26 10) rotate(90)"/><rect class="cls-1" x="6" y="-6" width="4" height="16" transform="translate(10 -6) rotate(90)"/><rect class="cls-1" x="24" y="16" width="4" height="4" transform="translate(52 36) rotate(180)"/><rect class="cls-1" x="24" width="4" height="4" transform="translate(52 4) rotate(180)"/><rect class="cls-1" x="18" width="4" height="4" transform="translate(40 4) rotate(180)"/><polygon class="cls-1" points="16 5 0 20 0 15 16 0 16 5"/></g></g></svg>