<svg xmlns="http://www.w3.org/2000/svg" viewBox="0 0 113.53 20"><title>logo</title><g id="图层_2" data-name="图层 2"><g id="图层_1-2" data-name="图层 1"><path d="M7.09.81A5.69,5.69,0,0,0,5.2,1.1a4.33,4.33,0,0,0-1.41.84A5.66,5.66,0,0,0,2.72,3.23a14.94,14.94,0,0,0-.86,1.7H1.51V.43h14L4.58,19.25H9.46a7.22,7.22,0,0,0,2.08-.3,5.46,5.46,0,0,0,1.84-1,6.59,6.59,0,0,0,1.49-1.78,9.4,9.4,0,0,0,1-2.66h.35v6.09H0L10.84.81Z"/><path d="M27.47.43V.81H25V19.25h2.48v.37H18.6v-.37h2.48V.81H18.6V.43Z"/><path d="M29.38.81V.43h2.48c.92,0,1.83,0,2.75,0s1.83,0,2.75,0a21.06,21.06,0,0,1,2.56.16,14.64,14.64,0,0,1,2.67.58,11.94,11.94,0,0,1,2.5,1.12,8.08,8.08,0,0,1,3.56,4.34A10.18,10.18,0,0,1,49.19,10a10.08,10.08,0,0,1-.54,3.45A8.48,8.48,0,0,1,47.21,16a8.28,8.28,0,0,1-2.06,1.78,12.52,12.52,0,0,1-2.41,1.12,13.6,13.6,0,0,1-2.48.57,17.28,17.28,0,0,1-2.28.17q-1.54,0-3.06,0t-3.06,0H29.38v-.37h2.48V.81ZM37.2,19.33a9.42,9.42,0,0,0,3-.42,6.51,6.51,0,0,0,2.09-1.13,6,6,0,0,0,1.35-1.63,8.58,8.58,0,0,0,.75-1.93,13.11,13.11,0,0,0,.34-2c.05-.68.08-1.31.08-1.9a26.18,26.18,0,0,0-.27-4,7.72,7.72,0,0,0-1.07-3A5.14,5.14,0,0,0,41.23,1.4,9,9,0,0,0,37.44.73h-1a4,4,0,0,0-.7.07V19.25C36.29,19.3,36.77,19.33,37.2,19.33Z"/><path d="M52.55,5.93A10.65,10.65,0,0,1,58.19.71,9.7,9.7,0,0,1,61.72,0a10.4,10.4,0,0,1,6.92,2.7,9.87,9.87,0,0,1,2.29,3.14A9.62,9.62,0,0,1,71.81,10,9.18,9.18,0,0,1,71,13.84,10.31,10.31,0,0,1,68.77,17a10.18,10.18,0,0,1-3.2,2.17,9.55,9.55,0,0,1-3.85.8,9.84,9.84,0,0,1-3.82-.77A10.31,10.31,0,0,1,52.45,14a9.3,9.3,0,0,1-.83-3.91A9.14,9.14,0,0,1,52.55,5.93Zm3.78,8.8a8.47,8.47,0,0,0,1,2.94,3.72,3.72,0,0,0,1.78,1.52,7,7,0,0,0,2.6.43,5.62,5.62,0,0,0,3.13-.74,4.52,4.52,0,0,0,1.7-2.05,9.49,9.49,0,0,0,.71-3.1c.1-1.19.15-2.49.15-3.89s0-2.46-.12-3.6a9.12,9.12,0,0,0-.69-3,4.57,4.57,0,0,0-1.71-2.07A5.57,5.57,0,0,0,61.72.38a5.63,5.63,0,0,0-3,.71A4.6,4.6,0,0,0,57,3.1a9.85,9.85,0,0,0-.78,3.07A36.18,36.18,0,0,0,56,10.08,28.33,28.33,0,0,0,56.33,14.73Z"/><path d="M80.22.43l9,12.83h.06V.81H86.77V.43h5.39V.81H89.68V19.62H89L76.82,2.34h0V19.25h2.48v.37h-5.4v-.37h2.48V.81H73.85V.43Z"/><path d="M110.13,5.93A9.17,9.17,0,0,0,108,1.82,4.83,4.83,0,0,0,104.29.38a5.64,5.64,0,0,0-3,.71A4.9,4.9,0,0,0,99.56,3a7.65,7.65,0,0,0-.8,2.62,22.56,22.56,0,0,0-.19,3v2.35A22.66,22.66,0,0,0,98.89,15a7.33,7.33,0,0,0,1,2.7,3.88,3.88,0,0,0,1.77,1.47,7.06,7.06,0,0,0,2.61.44,3.79,3.79,0,0,0,2-.44A3,3,0,0,0,107.37,18a5.17,5.17,0,0,0,.5-1.82c.07-.71.11-1.47.11-2.3v-1H105.2v-.38h8.33v.38h-1.75V19h-.49a.63.63,0,0,0-.31-.47,1.11,1.11,0,0,0-.58-.15,3,3,0,0,0-1.22.26l-1.26.55a11.47,11.47,0,0,1-1.55.55,7.6,7.6,0,0,1-2.11.26,9.78,9.78,0,0,1-3.8-.77A10.31,10.31,0,0,1,95,14a9.3,9.3,0,0,1-.83-3.91,9.14,9.14,0,0,1,.93-4.15,10.7,10.7,0,0,1,2.38-3.18,10.85,10.85,0,0,1,3.25-2A9.61,9.61,0,0,1,104.26,0a7.24,7.24,0,0,1,1.56.16c.5.11,1,.22,1.4.34s.82.23,1.16.34a3.23,3.23,0,0,0,.87.16.88.88,0,0,0,.53-.12,1,1,0,0,0,.3-.45h.46v5.5Z"/></g></g></svg>