<svg xmlns="http://www.w3.org/2000/svg" xmlns:xlink="http://www.w3.org/1999/xlink" viewBox="0 0 361.87 744.01"><defs><style>.cls-1,.cls-10{fill:none;}.cls-2{fill:#ccc;stroke:#4d4d4d;stroke-width:3px;}.cls-10,.cls-2{stroke-miterlimit:10;}.cls-3{fill:#69c;}.cls-4{fill:#5e8fb7;}.cls-5{fill:#1b242b;}.cls-6{fill:#566068;}.cls-7{writing-mode:tb;text-orientation:upright;glyph-orientation-vertical:0deg;font-size:27.39px;font-family:PingFangSC-Regular-GBpc-EUC-H, PingFang SC;}.cls-13,.cls-7{fill:#f2f2f2;}.cls-8{clip-path:url(#clip-path);}.cls-9{fill:#5581a5;}.cls-10{stroke:#000;}.cls-11{fill:#5d8aaf;}.cls-12{opacity:0.8;}</style><clipPath id="clip-path"><circle class="cls-1" cx="181.81" cy="180.93" r="179.43"/></clipPath></defs><title>scanner2</title><g id="图层_2" data-name="图层 2"><g id="图层_1-2" data-name="图层 1"><circle class="cls-2" cx="180.93" cy="180.93" r="179.43"/><rect class="cls-3" x="140.68" y="433.28" width="82.26" height="310.73"/><polygon class="cls-4" points="140.68 744.01 140.68 651.71 222.94 569.89 222.94 744.01 140.68 744.01"/><rect class="cls-5" x="148.98" y="443.07" width="65.67" height="49.1"/><rect class="cls-6" x="148.98" y="479.66" width="65.67" height="12.51"/><text class="cls-7" transform="translate(181.81 503.63)">扫门票呼叫无人车</text><g class="cls-8"><polygon class="cls-3" points="274.2 207.69 90.73 207.69 100.73 98.9 264.2 98.9 274.2 207.69"/><polygon class="cls-9" points="214.2 407.34 150.73 407.34 90.73 207.69 274.2 207.69 214.2 407.34"/><polygon class="cls-5" points="239.08 263.81 128.52 263.81 120.22 227.06 247.38 227.06 239.08 263.81"/><polyline class="cls-6" points="128.52 263.81 136.83 234.14 233.59 234.14 239.08 263.81"/><line class="cls-10" x1="120.22" y1="227.05" x2="136.83" y2="234.14"/><polygon class="cls-11" points="263.88 201.57 101.04 201.57 109.92 105.01 255.01 105.01 263.88 201.57"/><line class="cls-10" x1="247.38" y1="227.05" x2="233.59" y2="234.14"/><g class="cls-12"><polygon class="cls-13" points="172.43 121.97 149.51 121.97 146.41 124.45 149.08 126.97 172.31 126.97 175.25 124.45 172.43 121.97"/><polygon class="cls-13" points="171.76 146.39 147.32 146.39 144 149.22 146.83 152.09 171.62 152.09 174.77 149.22 171.76 146.39"/><polygon class="cls-13" points="144.64 174.19 146.55 152.21 143.69 149.63 140.35 152.21 138.1 174.19 141.09 177.1 144.64 174.19"/><polygon class="cls-13" points="171.08 174.39 144.91 174.39 141.34 177.64 144.35 180.93 170.93 180.93 174.3 177.64 171.08 174.39"/><polygon class="cls-13" points="178.23 146.23 178.38 127.01 175.51 124.74 172.57 127.01 172.12 146.23 175.13 148.77 178.23 146.23"/><polygon class="cls-13" points="213.13 121.97 190.21 121.97 187.38 124.45 190.33 126.97 213.56 126.97 216.23 124.45 213.13 121.97"/><polygon class="cls-13" points="215.15 146.39 190.71 146.39 187.71 149.22 190.85 152.09 215.64 152.09 218.47 149.22 215.15 146.39"/><polygon class="cls-13" points="191.09 174.19 190.58 152.21 187.44 149.63 184.38 152.21 184.55 174.19 187.87 177.1 191.09 174.19"/><polygon class="cls-13" points="217.56 174.39 191.38 174.39 188.16 177.64 191.54 180.93 218.12 180.93 221.13 177.64 217.56 174.39"/><polygon class="cls-13" points="221.6 146.23 219.63 127.01 216.51 124.74 213.82 127.01 215.49 146.23 218.79 148.77 221.6 146.23"/></g><path class="cls-13" d="M172.43,310.77c-3.36.89-6.6,1.67-9.89,2.39l2.13,12.48c.37,2.12-1.58,3.17-5.7,3.17h-6.16l-2-2.57c2,.08,3.89.15,5.69.15s2.68-.49,2.46-1.44l-2.37-10.56c-3.53.65-6.94,1.24-10.42,1.79L143.74,313c4.1-.53,8.2-1.16,12.14-1.95l-2.83-12.62h-13l-1.4-4.31h13.42l-2.9-12.93h7.89l2.21,12.93H170l.4,4.31H160L162,309.82c3.37-.81,6.78-1.68,10.15-2.68Zm52.72-23.83-12.37,41.48H207.4l.55-2.25H174.41l-.21-2.75h34.42l3-12.4H177.29l-.16-3.51h35.39l3.86-15.74H173.93l-.3-4.83Z"/><path class="cls-13" d="M160.28,337.32l4.36,18.14h-3.79l-5.28-18.14Zm13.41.18-4.22,1a63.12,63.12,0,0,0-9.66-5.78l4.48-1A64,64,0,0,1,173.69,337.5Zm20.46,17.78-.79-1.33,4.9,0c1.6,0,2.52-.38,2.71-1.16l4.06-17H178.79l-.08-2.09h31.7l-5.64,19.47c-.4,1.37-2.38,2-6,2Z"/><path class="cls-13" d="M205.83,357.73l-.37,1.13H189.92l-.14,1.38h11.59l-1,3.58H164.73l-1-3.58h11.59l-.15-1.38H159.63l-.37-1.13Zm-3.68,9.11-.27.86H184.62l-.07,2.05c0,.68-1.32,1-3.9,1h-3.86l-.69-.79c1.22,0,2.4.05,3.53.05s1.86-.17,1.86-.5l0-1.84H163.2l-.27-.86Zm-25.74,1.91A84.37,84.37,0,0,1,166,370.67l-2.06-.7a95.3,95.3,0,0,0,10.34-1.78Zm21.9-3.82-.21.88H167.22l-.21-.88Zm-22.85-3.68h-8l.36,1.66h7.79Zm11-2.39h-7.69l.07,1.38h7.54Zm-.13,2.39h-7.44l.09,1.66h7.25Zm11.36,0h-8l-.17,1.66h7.79Zm3.85,8.81-2.35.62c-2.22-.59-5.41-1.23-9.63-1.93l2.22-.59C195.73,368.81,199,369.44,201.5,370.06Z"/><path class="cls-13" d="M170,380.28h-2.49l-2.28-7.49h10.54l.87,7.28h-2.5l-.09-.52h-4.24Zm3-6.75h-4.75l1.37,5.42h4.29Zm9.29,7.39-.54-.59c1.22,0,2.37.05,3.52.05s1.89-.13,1.91-.37l.22-2.36h-9.49l-.06-.67h9.61l.35-3.74c-2.88.1-5.89.17-8.92.21l-1-.71c8.4-.13,15.48-.4,21.3-.85l1.21.7c-3.13.22-6.32.4-9.65.54l-.56,3.85h9.84l-.22.67h-9.72l-.36,2.51c-.08.51-1.29.76-3.6.76Zm2.23-4.59-2.49.17a16,16,0,0,0-2.88-2.15l2.54-.22A13.77,13.77,0,0,1,184.52,376.33ZM200,373.94a17.54,17.54,0,0,1-4.16,2.53l-2.44-.24a17.3,17.3,0,0,0,4-2.48Z"/><path class="cls-13" d="M178.64,387.38h-2.22l0-.33H171.7l.12.46h-2.19l-1.58-5.22h10.13Zm-2.33-.78-.54-3.76h-5.13l1,3.76Zm19.76-4.94-1.81,6.44H192l.39-1.69q-4.8.31-9.92.56l-.7-.42c.66-.05,1-.12,1-.23l0-4.09h2.56l-.25,4.14c2.45-.12,4.92-.27,7.38-.45l1-4.26Z"/><path class="cls-13" d="M193,388.92l-.11.41H182.33v.38a2.37,2.37,0,0,1-.36,1h12.88l-.12.37H186l-.16,1.76c0,.15.41.23,1.27.23h3.4a8.39,8.39,0,0,0,1.44-.09,1.38,1.38,0,0,0,.94-.69l1.83.11a2.24,2.24,0,0,1-1.48.86,16.15,16.15,0,0,1-2.45.13h-4.3c-1.76,0-2.6-.16-2.59-.48l.07-1.83h-2.29a5.19,5.19,0,0,1-2,1.15,37.16,37.16,0,0,1-7.88,1.22l-1.16-.3a32.88,32.88,0,0,0,7.53-1.2,4.28,4.28,0,0,0,1.45-.87h-9.28l-.12-.37h9.72a1.69,1.69,0,0,0,.31-1l0-.38h-8.46l-.11-.41Z"/><path class="cls-13" d="M183.28,394.81c1.35,1.13,4.79,1.95,10.22,2.49l-1.18.24c-4.72-.5-8-1.2-9.71-2.11-1.46.88-4.83,1.58-10,2.11l-1.12-.24c6.43-.64,9.82-1.55,10-2.76,0-.3,0-.54,0-.71h1.91A3,3,0,0,1,183.28,394.81Z"/><path class="cls-13" d="M178.47,398.32c.42-.15.84-.31,1.25-.48l1.68.06q-.56.23-1.14.42H192l-.08.24H179.48c-1,.29-2,.54-3.21.76H182v-.49h1.65l0,.49h6.85l-.06.21h-6.79l0,.47h8.23l-.07.22h-8.17l0,.65H182v-.65h-8.69l-.07-.22H182v-.47h-7.35l-.41-.21a28.64,28.64,0,0,0,3.46-.76h-4.56l-.07-.24Z"/></g><line class="cls-2" x1="53.07" y1="306.81" x2="135.82" y2="416.01"/><line class="cls-2" x1="308.65" y1="306.81" x2="225.91" y2="416.01"/></g></g></svg>