<svg xmlns="http://www.w3.org/2000/svg" viewBox="0 0 13.77 131.34"><defs><style>.cls-1{fill:#fff;}</style></defs><title>scrolldown</title><g id="图层_2" data-name="图层 2"><g id="图层_1-2" data-name="图层 1"><path class="cls-1" d="M5.47,1.82H.57V0H12.63V2.06a9.32,9.32,0,0,1-.21,2.29,3,3,0,0,1-.8,1.38,3.43,3.43,0,0,1-2.56,1A3.29,3.29,0,0,1,6.44,5.66a4.38,4.38,0,0,1-1-3Zm1.69,0V2.5C7.16,4.17,7.8,5,9.09,5S11,4.15,11,2.42v-.6Z"/><path class="cls-1" d="M13.77,10.06H.57V8.3h13.2Z"/><path class="cls-1" d="M4,19.22V13.77a2.28,2.28,0,0,0-1.49.61,2,2,0,0,0-.24,2.46,4.39,4.39,0,0,0,1.16,1l-.83,1.49a5.74,5.74,0,0,1-1-.73,3.76,3.76,0,0,1-.69-.82,3.12,3.12,0,0,1-.39-.94,4.31,4.31,0,0,1-.13-1.1A3.56,3.56,0,0,1,1.45,13a4.07,4.07,0,0,1,2.92-1,4.21,4.21,0,0,1,2.92,1,3.45,3.45,0,0,1,1.1,2.67,3.44,3.44,0,0,1-1.07,2.66,4.24,4.24,0,0,1-2.94,1ZM5.4,17.41a1.67,1.67,0,0,0,1.4-1.77,2,2,0,0,0-.09-.6,1.8,1.8,0,0,0-.28-.51,1.72,1.72,0,0,0-.45-.4,2,2,0,0,0-.58-.25Z"/><path class="cls-1" d="M8.18,26.75v1.77H.57V26.75h.8a3.38,3.38,0,0,1,.12-4.95,4.27,4.27,0,0,1,2.91-1,4.12,4.12,0,0,1,2.85,1,3.32,3.32,0,0,1,1.14,2.57A3.23,3.23,0,0,1,7.3,26.75ZM4.4,22.58a2.63,2.63,0,0,0-1.78.58,1.92,1.92,0,0,0-.7,1.52,2,2,0,0,0,.67,1.58,2.62,2.62,0,0,0,1.77.6,2.59,2.59,0,0,0,1.76-.6,2.08,2.08,0,0,0,0-3.08A2.56,2.56,0,0,0,4.4,22.58Z"/><path class="cls-1" d="M6.88,35.16,6.11,33.7c.47-.23.7-.51.7-.85a.56.56,0,0,0-.16-.41.52.52,0,0,0-.41-.17c-.29,0-.58.33-.86,1a6.39,6.39,0,0,1-1.11,1.88,1.89,1.89,0,0,1-1.37.49,2.41,2.41,0,0,1-1.85-.81,2.83,2.83,0,0,1-.7-1.91,2.76,2.76,0,0,1,1.87-2.71l.69,1.5a3.35,3.35,0,0,0-.69.48,1.06,1.06,0,0,0-.3.76c0,.59.27.89.81.89.32,0,.61-.23.88-.69.09-.17.17-.35.26-.53s.17-.35.25-.54A3.17,3.17,0,0,1,4.88,31a1.79,1.79,0,0,1,1.22-.4,2.14,2.14,0,0,1,1.64.68A2.37,2.37,0,0,1,8.39,33,2.31,2.31,0,0,1,6.88,35.16Z"/><path class="cls-1" d="M4,44.16V38.7a2.33,2.33,0,0,0-1.49.61,2,2,0,0,0-.24,2.47,4.59,4.59,0,0,0,1.16,1l-.83,1.49a6.31,6.31,0,0,1-1-.73,3.76,3.76,0,0,1-.69-.82,3.17,3.17,0,0,1-.39-1,4.2,4.2,0,0,1-.13-1.1,3.55,3.55,0,0,1,1.1-2.73,4.07,4.07,0,0,1,2.92-1,4.21,4.21,0,0,1,2.92,1,3.82,3.82,0,0,1,0,5.33,4.23,4.23,0,0,1-2.94,1ZM5.4,42.35a1.67,1.67,0,0,0,1.4-1.77,1.89,1.89,0,0,0-.09-.6,2,2,0,0,0-.28-.52A1.89,1.89,0,0,0,6,39.07a2,2,0,0,0-.58-.25Z"/><path class="cls-1" d="M6.88,55.44,6.11,54c.47-.23.7-.51.7-.85a.56.56,0,0,0-.16-.41.52.52,0,0,0-.41-.17c-.29,0-.58.34-.86,1a6.47,6.47,0,0,1-1.11,1.89,1.92,1.92,0,0,1-1.37.48,2.41,2.41,0,0,1-1.85-.81,2.81,2.81,0,0,1-.7-1.91A2.76,2.76,0,0,1,2.22,50.5L2.91,52a3.35,3.35,0,0,0-.69.48,1.07,1.07,0,0,0-.3.76c0,.6.27.89.81.89.32,0,.61-.23.88-.68l.26-.54c.08-.17.17-.35.25-.53a3.12,3.12,0,0,1,.76-1.08,1.79,1.79,0,0,1,1.22-.4,2.14,2.14,0,0,1,1.64.68,2.38,2.38,0,0,1,.65,1.69A2.3,2.3,0,0,1,6.88,55.44Z"/><path class="cls-1" d="M7.85,63.43H5.52a4.31,4.31,0,0,0,1-1.08,2.07,2.07,0,0,0,.28-1.1,2.19,2.19,0,0,0-.69-1.65A2.44,2.44,0,0,0,4.37,59a2.5,2.5,0,0,0-1.76.63,2.12,2.12,0,0,0-.69,1.63,2.19,2.19,0,0,0,.28,1.12,4.13,4.13,0,0,0,1,1.1H.91a4.62,4.62,0,0,1-.56-2.14,4.08,4.08,0,0,1,1.14-2.95,3.79,3.79,0,0,1,2.85-1.19,3.86,3.86,0,0,1,2.88,1.2A4.07,4.07,0,0,1,8.39,61.3,4.44,4.44,0,0,1,7.85,63.43Z"/><path class="cls-1" d="M8.18,65.13v1.76H7.5a3.42,3.42,0,0,1,.7.86,2.11,2.11,0,0,1,.19.91,2.87,2.87,0,0,1-.45,1.45L6.33,69.3a1.65,1.65,0,0,0,.36-1c0-1-.73-1.44-2.17-1.44H.57V65.13Z"/><path class="cls-1" d="M4.43,70.62a3.76,3.76,0,0,1,2.8,1.18,3.94,3.94,0,0,1,1.16,2.87,4,4,0,0,1-1.16,2.89,3.89,3.89,0,0,1-2.86,1.17A3.85,3.85,0,0,1,1.5,77.55,4,4,0,0,1,.35,74.64a3.88,3.88,0,0,1,1.17-2.87A3.94,3.94,0,0,1,4.43,70.62Zm0,1.79A2.62,2.62,0,0,0,2.59,73a2.15,2.15,0,0,0-.67,1.65,2.12,2.12,0,0,0,.67,1.65,2.5,2.5,0,0,0,1.77.62,2.5,2.5,0,0,0,1.77-.62,2.15,2.15,0,0,0,.67-1.65A2.12,2.12,0,0,0,6.13,73,2.42,2.42,0,0,0,4.4,72.41Z"/><path class="cls-1" d="M13.77,82.35H.57V80.59h13.2Z"/><path class="cls-1" d="M13.77,86.34H.57V84.58h13.2Z"/><path class="cls-1" d="M13.77,99.11v1.77H.57V99.11h.8a3.27,3.27,0,0,1-1-2.35,3.37,3.37,0,0,1,1.14-2.6,4.27,4.27,0,0,1,2.91-1,4.11,4.11,0,0,1,2.84,1,3.29,3.29,0,0,1,.06,5ZM4.4,94.94a2.63,2.63,0,0,0-1.78.58A1.91,1.91,0,0,0,1.92,97a2,2,0,0,0,.67,1.58,2.62,2.62,0,0,0,1.77.6,2.59,2.59,0,0,0,1.76-.6,2.08,2.08,0,0,0,0-3.08A2.56,2.56,0,0,0,4.4,94.94Z"/><path class="cls-1" d="M4.43,102.73a3.79,3.79,0,0,1,2.8,1.18,4.17,4.17,0,0,1,0,5.77,3.89,3.89,0,0,1-2.86,1.17,3.85,3.85,0,0,1-2.87-1.18,4,4,0,0,1-1.15-2.91,3.88,3.88,0,0,1,1.17-2.87A4,4,0,0,1,4.43,102.73Zm0,1.8a2.58,2.58,0,0,0-1.81.61,2.15,2.15,0,0,0-.67,1.65,2.12,2.12,0,0,0,.67,1.65,2.49,2.49,0,0,0,1.77.61,2.49,2.49,0,0,0,1.77-.61,2.15,2.15,0,0,0,.67-1.65,2.1,2.1,0,0,0-.67-1.63A2.42,2.42,0,0,0,4.4,104.53Z"/><path class="cls-1" d="M8.18,113.36l-4.34,2,5,2.15-5,2.16,4.34,2v2l-8.18-4,4.9-2.12L0,115.36l8.18-4Z"/><path class="cls-1" d="M8.18,124.79v1.76h-.7a2.89,2.89,0,0,1,.91,2.08,2.6,2.6,0,0,1-.84,2.07,3.39,3.39,0,0,1-2.32.64H.57v-1.76H4.82a2.9,2.9,0,0,0,1.56-.31,1.28,1.28,0,0,0,.43-1.11,1.36,1.36,0,0,0-.58-1.25,4,4,0,0,0-2-.36H.57v-1.76Z"/></g></g></svg>