<svg xmlns="http://www.w3.org/2000/svg" viewBox="0 0 11.84 80.88"><defs><style>.cls-1{fill:#fff;}</style></defs><title>scrolldown</title><g id="图层_2" data-name="图层 2"><g id="图层_1-2" data-name="图层 1"><path class="cls-1" d="M3.88,0,4,1.43a3.31,3.31,0,0,0-1.41.47A2.6,2.6,0,0,0,1.7,3.05a4.35,4.35,0,0,0-.34,1.76,4.23,4.23,0,0,0,.26,1.53,2,2,0,0,0,.7,1,1.63,1.63,0,0,0,1,.33,1.51,1.51,0,0,0,1-.32,2.3,2.3,0,0,0,.67-1,18.93,18.93,0,0,0,.56-2A9.87,9.87,0,0,1,6.2,2.06,3.12,3.12,0,0,1,7.26.84,2.61,2.61,0,0,1,8.69.44a2.88,2.88,0,0,1,1.62.49,3.07,3.07,0,0,1,1.14,1.44,5.46,5.46,0,0,1,.39,2.1,5.56,5.56,0,0,1-.41,2.24,3.22,3.22,0,0,1-1.2,1.5,3.42,3.42,0,0,1-1.81.56L8.31,7.32A2.34,2.34,0,0,0,10,6.53a3.1,3.1,0,0,0,.56-2,3.16,3.16,0,0,0-.51-2A1.5,1.5,0,0,0,8.79,1.9a1.34,1.34,0,0,0-1,.44A6.31,6.31,0,0,0,7,4.63a15.81,15.81,0,0,1-.73,2.53A3.51,3.51,0,0,1,5.06,8.64a2.84,2.84,0,0,1-1.63.48,3.11,3.11,0,0,1-1.72-.53A3.41,3.41,0,0,1,.45,7.09,5.23,5.23,0,0,1,0,4.88a6.62,6.62,0,0,1,.45-2.6A3.64,3.64,0,0,1,1.82.63,3.82,3.82,0,0,1,3.88,0Z"/><path class="cls-1" d="M3.23,16.42,3.05,17.8A3.53,3.53,0,0,1,.82,16.64,3.36,3.36,0,0,1,0,14.35a3.58,3.58,0,0,1,1.11-2.74,4.52,4.52,0,0,1,3.19-1A5.86,5.86,0,0,1,6.66,11a3.11,3.11,0,0,1,1.52,1.36,4.1,4.1,0,0,1,.5,2A3.47,3.47,0,0,1,8,16.57a3.17,3.17,0,0,1-1.95,1.1L5.84,16.3a2.26,2.26,0,0,0,1.26-.69,1.79,1.79,0,0,0,.42-1.2,2.17,2.17,0,0,0-.76-1.72A3.63,3.63,0,0,0,4.35,12a3.8,3.8,0,0,0-2.43.64,2.12,2.12,0,0,0-.76,1.68,2,2,0,0,0,.51,1.38A2.53,2.53,0,0,0,3.23,16.42Z"/><path class="cls-1" d="M.2,19H8.49v1.27H7.23a3.49,3.49,0,0,1,1.17.89,1.57,1.57,0,0,1,.28.9,2.76,2.76,0,0,1-.45,1.45L6.92,23a2.08,2.08,0,0,0,.31-1A1.35,1.35,0,0,0,7,21.16a1.53,1.53,0,0,0-.77-.53,5.7,5.7,0,0,0-1.64-.23H.2Z"/><path class="cls-1" d="M4.34,23.81a4.3,4.3,0,0,1,3.42,1.28,3.91,3.91,0,0,1,.92,2.61,3.71,3.71,0,0,1-1.12,2.8,4.29,4.29,0,0,1-3.1,1.09,5.48,5.48,0,0,1-2.52-.48,3.36,3.36,0,0,1-1.42-1.4,4.09,4.09,0,0,1-.51-2,3.72,3.72,0,0,1,1.11-2.81A4.46,4.46,0,0,1,4.34,23.81Zm0,1.45A3.54,3.54,0,0,0,2,26a2.31,2.31,0,0,0,0,3.5,3.63,3.63,0,0,0,2.43.69,3.4,3.4,0,0,0,2.33-.7,2.21,2.21,0,0,0,.8-1.74A2.27,2.27,0,0,0,6.73,26,3.55,3.55,0,0,0,4.34,25.26Z"/><path class="cls-1" d="M.2,33.2H11.65v1.41H.2Z"/><path class="cls-1" d="M.2,36.76H11.65v1.4H.2Z"/><path class="cls-1" d="M.2,50.17h1A2.58,2.58,0,0,1,0,47.85,3.26,3.26,0,0,1,.55,46a3.59,3.59,0,0,1,1.53-1.29,5.25,5.25,0,0,1,2.26-.46,5.82,5.82,0,0,1,2.25.42,3.26,3.26,0,0,1,1.55,1.24,3.31,3.31,0,0,1,.54,1.85,2.82,2.82,0,0,1-1.14,2.29h4.11v1.4H.2Zm4.14-4.44A3.61,3.61,0,0,0,2,46.4,2.05,2.05,0,0,0,1.16,48a2,2,0,0,0,.76,1.57,3.47,3.47,0,0,0,2.3.65,3.89,3.89,0,0,0,2.5-.66,2,2,0,0,0,.8-1.62,1.94,1.94,0,0,0-.77-1.56A3.78,3.78,0,0,0,4.34,45.73Z"/><path class="cls-1" d="M4.34,53.16a4.27,4.27,0,0,1,3.42,1.29,3.86,3.86,0,0,1,.92,2.6,3.7,3.7,0,0,1-1.12,2.8,4.25,4.25,0,0,1-3.1,1.09,5.48,5.48,0,0,1-2.52-.48,3.36,3.36,0,0,1-1.42-1.4,4.06,4.06,0,0,1-.51-2,3.72,3.72,0,0,1,1.11-2.81A4.46,4.46,0,0,1,4.34,53.16Zm0,1.45A3.54,3.54,0,0,0,2,55.3a2.31,2.31,0,0,0,0,3.5,3.63,3.63,0,0,0,2.43.69,3.4,3.4,0,0,0,2.33-.7,2.21,2.21,0,0,0,.8-1.74,2.27,2.27,0,0,0-.79-1.75A3.55,3.55,0,0,0,4.34,54.61Z"/><path class="cls-1" d="M.2,64.12l8.29-2.54V63L3.7,64.35l-1.78.49,1.71.43,4.86,1.32V68L3.68,69.28l-1.59.42,1.61.47,4.79,1.42V73L.2,70.37V68.91l5-1.32,1.42-.32L.2,65.59Z"/><path class="cls-1" d="M.2,74.14H8.49v1.27H7.31a3,3,0,0,1,1.37,2.64,3.47,3.47,0,0,1-.27,1.38,2.17,2.17,0,0,1-.71.94,2.57,2.57,0,0,1-1,.43,7.15,7.15,0,0,1-1.36.08H.2v-1.4h5a3.77,3.77,0,0,0,1.29-.17,1.36,1.36,0,0,0,.68-.58,1.86,1.86,0,0,0,.25-1,2.27,2.27,0,0,0-.57-1.55,2.79,2.79,0,0,0-2.16-.65H.2Z"/></g></g></svg>