<svg xmlns="http://www.w3.org/2000/svg" xmlns:xlink="http://www.w3.org/1999/xlink" viewBox="0 0 1299.04 795.36"><defs><style>.cls-1,.cls-2{fill:none;stroke-linecap:round;stroke-miterlimit:10;stroke-width:3px;}.cls-1{stroke:blue;}.cls-2{fill-rule:evenodd;stroke:url(#未命名的渐变_3);}.cls-3{font-size:40px;}.cls-3,.cls-5{font-family:AdobeSongStd-Light-GBpc-EUC-H, Adobe Song Std;}.cls-4{fill:#29abe2;}.cls-5{font-size:16px;}</style><linearGradient id="未命名的渐变_3" x1="257.57" y1="378.9" x2="1189.07" y2="378.9" gradientUnits="userSpaceOnUse"><stop offset="0" stop-color="aqua"/><stop offset="1" stop-color="blue"/></linearGradient></defs><title>time-energy</title><g id="图层_2" data-name="图层 2"><g id="图层_1-2" data-name="图层 1"><polyline class="cls-1" points="118.07 12.4 118.07 752.4 1295.07 752.4"/><path class="cls-2" d="M1187.57,703.9c-77.27,0-38.57-260-87.5-260s-33.56,162-108.25,162-43.75-315-106.75-315c-43.79,0-43.92,201-110.89,201s-64.39-309-121-310S599,310.9,529.5,309.9s-207.33-255-270.43-256"/><text class="cls-3" transform="translate(0 35.2)">energy</text><text class="cls-3" transform="translate(1230 785.2)">time</text><circle class="cls-4" cx="535.57" cy="307.4" r="19"/><circle class="cls-4" cx="777.57" cy="491.4" r="19"/><circle class="cls-4" cx="994.57" cy="599.4" r="19"/><circle class="cls-4" cx="1187.57" cy="704.4" r="19"/><text class="cls-5" transform="translate(327.14 357.13)">Opportunity to introduce services</text><text class="cls-5" transform="translate(576.14 538.13)">Opportunity to introduce services</text><text class="cls-5" transform="translate(796.14 642.13)">Opportunity to introduce services</text><text class="cls-5" transform="translate(935.14 712.13)">Opportunity to introduce services</text></g></g></svg>