<svg xmlns="http://www.w3.org/2000/svg" xmlns:xlink="http://www.w3.org/1999/xlink" viewBox="0 0 1182.47 743"><defs><style>.cls-1,.cls-2{fill:none;stroke-linecap:round;stroke-miterlimit:10;stroke-width:3px;}.cls-1{stroke:blue;}.cls-2{fill-rule:evenodd;stroke:url(#未命名的渐变_3);}.cls-3{font-size:40px;font-family:AdobeSongStd-Light-GBpc-EUC-H, Adobe Song Std;}.cls-4{fill:#29abe2;}</style><linearGradient id="未命名的渐变_3" x1="141" y1="380.4" x2="1072.5" y2="380.4" gradientUnits="userSpaceOnUse"><stop offset="0" stop-color="aqua"/><stop offset="1" stop-color="blue"/></linearGradient></defs><title>time-energy</title><g id="图层_2" data-name="图层 2"><g id="图层_1-2" data-name="图层 1"><polyline class="cls-1" points="1.5 1.5 1.5 741.5 1178.5 741.5"/><path class="cls-2" d="M1071,705.4c-77.27,0-38.56-260-87.5-260s-33.55,162-108.24,162-43.76-315-106.76-315c-43.79,0-43.92,201-110.88,201s-64.39-309-121-310-54.09,129-123.63,128S205.6,56.4,142.5,55.4"/><text class="cls-3" transform="translate(17.43 36.7)">energy</text><text class="cls-3" transform="translate(1113.43 713.7)">time</text><circle class="cls-4" cx="419" cy="308.9" r="19"/><circle class="cls-4" cx="661" cy="492.9" r="19"/><circle class="cls-4" cx="878" cy="600.9" r="19"/><circle class="cls-4" cx="1071" cy="705.9" r="19"/><circle class="cls-4" cx="1163.47" cy="24.18" r="19"/><text class="cls-3" transform="translate(569.58 36.7)">Opportunity to introduce services</text></g></g></svg>